<?xml version="1.0" encoding="UTF-8"?>
<svg id="a" xmlns="http://www.w3.org/2000/svg" width="20" height="20" viewBox="0 0 20 20">
    <polygon
        points="3.43 9.96 3.43 16.46 6.78 16.46 6.78 15.21 4.68 15.21 4.68 4.79 6.78 4.79 6.78 3.54 3.43 3.54 3.43 9.96"
        style="stroke-width: 0px;" fill="currentColor" />
    <polygon
        points="16.57 10.04 16.57 3.54 13.22 3.54 13.22 4.79 15.32 4.79 15.32 15.21 13.22 15.21 13.22 16.46 16.57 16.46 16.57 10.04"
        style="stroke-width: 0px;" fill="currentColor" />
    <path
        d="m6.23,12.33c0-.38.12-.69.36-.9.24-.22.5-.32.8-.32.21,0,.4.07.55.2.15.13.23.31.23.54,0,.51-.27.87-.81,1.07.2.17.42.26.65.26.4,0,.72-.24.96-.73.15-.27.39-1.07.71-2.4.33-1.34.49-2.13.49-2.37,0-.28-.08-.48-.24-.6-.16-.12-.35-.18-.56-.18-.4,0-.78.17-1.16.5-.38.33-.66.75-.84,1.25-.06.19-.12.31-.17.36-.05.05-.15.08-.3.09h-.08c-.28,0-.41-.08-.41-.25,0-.13.06-.33.19-.59.13-.26.31-.54.54-.84.23-.3.56-.56.98-.78.42-.22.86-.33,1.34-.33.88,0,1.53.29,1.97.87.55-.58,1.1-.87,1.65-.87.46,0,.86.13,1.21.38.35.26.53.61.53,1.05,0,.39-.12.69-.36.91s-.5.33-.8.33c-.22,0-.41-.07-.56-.21-.15-.14-.22-.32-.22-.54,0-.51.27-.87.82-1.07-.2-.17-.42-.26-.66-.26-.15,0-.29.03-.42.09s-.25.18-.35.35c-.11.17-.2.33-.27.49-.08.15-.16.39-.25.7-.09.31-.16.57-.21.79-.05.21-.13.53-.23.96-.1.43-.18.76-.25,1.01-.13.51-.2.88-.2,1.12,0,.28.08.48.25.6.17.12.36.19.57.19.4,0,.78-.17,1.16-.5.38-.33.66-.74.84-1.23.01-.02.02-.05.03-.1.01-.04.02-.07.03-.09s.02-.04.03-.07.02-.05.02-.06c0,0,.02-.03.03-.05s.03-.04.05-.04c.02,0,.04-.01.06-.02.02,0,.05-.02.07-.02h.2c.28,0,.41.08.41.24,0,.4-.29.92-.88,1.56-.59.65-1.31.97-2.16.97-.93,0-1.59-.29-2-.87h-.02c-.47.58-1.01.87-1.63.87-.45,0-.85-.13-1.2-.38-.35-.25-.53-.6-.53-1.05Z"
        style="stroke-width: 0px;" fill="currentColor" />
</svg>