<svg t="1728768054402" class="icon" viewBox="0 0 1024 1024" version="1.1" xmlns="http://www.w3.org/2000/svg" p-id="3427"
    width="20" height="20">
    <path
        d="M170.666667 170.666667h682.666666v64H170.666667V170.666667z m597.333333 234.666666H256a21.333333 21.333333 0 0 0-21.333333 21.333334v170.666666a21.333333 21.333333 0 0 0 21.333333 21.333334h512a21.333333 21.333333 0 0 0 21.333333-21.333334v-170.666666a21.333333 21.333333 0 0 0-21.333333-21.333334zM256 341.333333h512a85.333333 85.333333 0 0 1 85.333333 85.333334v170.666666a85.333333 85.333333 0 0 1-85.333333 85.333334H256a85.333333 85.333333 0 0 1-85.333333-85.333334v-170.666666a85.333333 85.333333 0 0 1 85.333333-85.333334z m597.333333 448H170.666667V853.333333h682.666666v-64z"
        fill="currentColor" p-id="3428"></path>
</svg>