<svg t="1728768115138" class="icon" viewBox="0 0 1024 1024" version="1.1" xmlns="http://www.w3.org/2000/svg" p-id="3879"
    width="20" height="20">
    <path
        d="M384 302.933333h85.333333v426.666667H384v-170.666667H213.333333v170.666667H128v-426.666667h85.333333v170.666667h170.666667v-170.666667z m341.333333 341.333334c21.333333-17.066667 25.6-25.6 46.933334-46.933334 17.066667-17.066667 34.133333-34.133333 51.2-55.466666 12.8-17.066667 25.6-34.133333 38.4-55.466667 8.533333-17.066667 12.8-34.133333 12.8-55.466667 0-17.066667-4.266667-38.4-12.8-55.466666-8.533333-17.066667-17.066667-29.866667-34.133334-42.666667-12.8-12.8-29.866667-21.333333-51.2-25.6-21.333333-8.533333-42.666667-8.533333-64-8.533333-17.066667 0-29.866667 0-46.933333 4.266666-12.8 4.266667-29.866667 8.533333-42.666667 12.8-12.8 4.266667-25.6 12.8-38.4 21.333334-12.8 8.533333-25.6 17.066667-34.133333 29.866666l51.2 51.2c12.8-12.8 25.6-21.333333 42.666667-29.866666 17.066667-8.533333 29.866667-12.8 51.2-12.8s38.4 4.266667 55.466666 17.066666c12.8 12.8 21.333333 29.866667 21.333334 46.933334 0 17.066667-4.266667 34.133333-17.066667 46.933333-12.8 21.333333-25.6 38.4-42.666667 51.2-17.066667 17.066667-42.666667 38.4-68.266666 59.733333-25.6 21.333333-59.733333 46.933333-93.866667 68.266667v64h341.333333v-85.333333H725.333333z"
        fill="currentColor" p-id="3880"></path>
</svg>