<svg t="1728768147139" class="icon" viewBox="0 0 1024 1024" version="1.1" xmlns="http://www.w3.org/2000/svg" p-id="4077"
    width="20" height="20">
    <path
        d="M601.6 605.866667c17.066667 12.8 34.133333 21.333333 51.2 29.866666 17.066667 8.533333 38.4 12.8 59.733333 12.8 21.333333 0 42.666667-4.266667 59.733334-12.8 12.8-4.266667 21.333333-21.333333 21.333333-34.133333 0-8.533333 0-17.066667-4.266667-25.6-4.266667-8.533333-12.8-12.8-21.333333-17.066667-12.8-4.266667-29.866667-8.533333-42.666667-12.8-21.333333-4.266667-42.666667-4.266667-64-4.266666v-68.266667c29.866667 4.266667 64-4.266667 93.866667-17.066667 17.066667-8.533333 25.6-21.333333 25.6-38.4 0-12.8-4.266667-25.6-17.066667-34.133333-12.8-8.533333-29.866667-12.8-46.933333-12.8-17.066667 0-34.133333 4.266667-46.933333 12.8-17.066667 8.533333-29.866667 17.066667-46.933334 25.6l-51.2-59.733333c21.333333-17.066667 46.933333-29.866667 68.266667-38.4 21.333333-8.533333 51.2-12.8 76.8-12.8 21.333333 0 42.666667 4.266667 68.266667 8.533333 17.066667 4.266667 34.133333 12.8 51.2 21.333333 12.8 8.533333 25.6 21.333333 34.133333 34.133334 8.533333 12.8 12.8 29.866667 12.8 46.933333 0 21.333333-8.533333 38.4-21.333333 55.466667-17.066667 17.066667-38.4 29.866667-64 38.4v4.266666c25.6 4.266667 51.2 17.066667 68.266666 34.133334 17.066667 17.066667 29.866667 38.4 29.866667 64 0 17.066667-4.266667 34.133333-12.8 51.2-8.533333 17.066667-21.333333 29.866667-38.4 38.4-17.066667 12.8-38.4 17.066667-55.466667 21.333333-21.333333 4.266667-42.666667 8.533333-68.266666 8.533333-34.133333 0-68.266667-4.266667-98.133334-17.066666-25.6-8.533333-46.933333-25.6-68.266666-42.666667l46.933333-59.733333zM384 469.333333H213.333333V298.666667H128v426.666666h85.333333v-170.666666h170.666667v170.666666h85.333333V298.666667H384v170.666666z"
        fill="currentColor" p-id="4078"></path>
</svg>