<?xml version="1.0" encoding="UTF-8"?>
<svg id="a" xmlns="http://www.w3.org/2000/svg" width="20" height="20" viewBox="0 0 20 20">
    <path d="m6.12,16l.88-.88L1.88,10l5.12-5.12-.88-.88L.12,10l6,6Zm7.77,0l-.88-.88,5.12-5.12-5.12-5.12.88-.88,6,6-6,6Z"
        style="fill-rule: evenodd; stroke-width: 0px;" fill="currentColor" />
    <path
        d="m6.23,12.33c0-.39.12-.69.36-.9s.5-.32.8-.32c.21,0,.4.07.55.2s.23.31.23.54c0,.51-.27.87-.81,1.07.2.17.42.26.65.26.4,0,.72-.25.96-.73.15-.27.39-1.07.71-2.4s.49-2.13.49-2.37c0-.28-.08-.48-.24-.6s-.34-.18-.56-.18c-.4,0-.78.17-1.16.5s-.66.75-.84,1.25c-.06.19-.12.31-.17.36s-.15.08-.3.09h-.08c-.28,0-.41-.08-.41-.25,0-.13.06-.33.19-.59s.31-.54.54-.84.56-.56.98-.78.86-.33,1.34-.33c.88,0,1.53.29,1.97.87.55-.58,1.1-.87,1.65-.87.46,0,.86.13,1.21.38s.53.61.53,1.05c0,.39-.12.69-.36.91s-.5.33-.8.33c-.22,0-.41-.07-.56-.21s-.22-.32-.22-.54c0-.51.27-.87.82-1.07-.2-.17-.42-.26-.66-.26-.15,0-.29.03-.42.09s-.25.18-.35.35-.2.33-.27.49-.16.39-.25.7-.16.57-.21.79-.13.53-.23.96-.18.76-.25,1.01c-.13.51-.2.88-.2,1.12,0,.28.08.48.25.6s.36.19.57.19c.4,0,.78-.17,1.16-.5s.66-.74.84-1.23c.01-.02.02-.05.03-.1s.02-.07.03-.09.02-.04.03-.07.02-.05.02-.06.02-.03.03-.05.03-.04.05-.04.04-.01.06-.02.05-.02.07-.02h.2c.28,0,.41.08.41.24,0,.4-.29.92-.88,1.56s-1.31.97-2.16.97c-.93,0-1.59-.29-2-.87h-.02c-.47.58-1.01.87-1.63.87-.45,0-.85-.13-1.2-.38-.35-.25-.53-.6-.53-1.05Z"
        style="stroke-width: 0px;" fill="currentColor" />
</svg>