<svg width="20" height="20" viewBox="0 0 20 20" fill="none" xmlns="http://www.w3.org/2000/svg">
<g clip-path="url(#clip0_6179_36208)">
<path fill-rule="evenodd" clip-rule="evenodd" d="M11.0971 9L11.0138 9.50002L9.99326 15.6224C9.62633 17.8241 7.5441 19.3114 5.34247 18.9444C4.24166 18.761 3.31942 18.1487 2.71826 17.307L4.34573 16.1446C4.64939 16.5697 5.11523 16.879 5.67127 16.9716C6.78335 17.157 7.83513 16.4057 8.02048 15.2936L8.98619 9.50002L9.06953 9H4.99999V7H9.40286L10.0066 3.37761C10.3735 1.17599 12.4558 -0.311319 14.6574 0.055618C15.7582 0.239087 16.6804 0.851379 17.2816 1.69301L15.6541 2.85548C15.3505 2.43036 14.8846 2.12108 14.3286 2.02841C13.2165 1.84306 12.1647 2.59433 11.9794 3.70641L11.4305 7H16V9H11.0971Z" fill="currentColor"/>
</g>
<defs>
<clipPath id="clip0_6179_36208">
<rect width="20" height="20" fill="white"/>
</clipPath>
</defs>
</svg>
