<svg t="1728768200791" class="icon" viewBox="0 0 1024 1024" version="1.1" xmlns="http://www.w3.org/2000/svg" p-id="4481"
    width="20" height="20">
    <path
        d="M256 226.389333V426.666667H213.333333V285.610667l-35.925333 11.946666-13.482667-40.448 64-21.333333 28.074667-9.386667zM853.333333 373.333333h-379.264v-64H853.333333v64z m0 298.666667h-379.264v-64H853.333333v64zM194.730667 530.688c20.565333-6.101333 52.437333-10.410667 72.618666 15.658667 10.794667 13.952 12.202667 31.829333 9.984 46.506666-3.242667 21.418667-17.194667 47.914667-28.928 70.186667-3.712 7.082667-7.253333 13.738667-10.069333 19.626667H277.333333v42.666666H162.816c10.794667-18.645333 20.778667-35.712 30.592-52.522666l31.274667-53.802667c5.376-9.386667 15.786667-33.450667 6.826666-45.013333-3.84-4.949333-13.994667-10.325333-28.501333-5.973334-13.141333 3.84-24.874667 14.378667-33.024 21.674667l-0.298667 0.256-5.546666-46.165333c8.96-4.864 19.626667-9.813333 30.592-13.098667z"
        fill="currentColor" p-id="4482"></path>
</svg>