<svg width="20" height="20" viewBox="0 0 20 20" fill="none" xmlns="http://www.w3.org/2000/svg">
<path fill-rule="evenodd" clip-rule="evenodd" d="M10 2C8.85166 2 7.64614 2.28406 6.6953 2.91795C5.71482 3.5716 5 4.61209 5 6C5 6.77149 5.16552 7.44802 5.49725 8.02784C5.71987 8.41695 6.00217 8.73606 6.31739 9H2V10.25H9.10026C9.38748 10.3245 9.66916 10.3907 9.93645 10.4535L9.93646 10.4536L10.021 10.4734C11.1302 10.7344 12.0126 10.9532 12.6404 11.3471C12.9309 11.5294 13.1326 11.7308 13.2668 11.9653C13.3999 12.198 13.5 12.5215 13.5 13C13.5 13.9401 13.1463 14.4997 12.6183 14.8653C12.0364 15.2682 11.1404 15.5 10 15.5C7.79256 15.5 6.5 14.2197 6.5 13H4.5C4.5 15.7803 7.20744 17.5 10 17.5C11.3596 17.5 12.7136 17.2318 13.7567 16.5097C14.8537 15.7503 15.5 14.5599 15.5 13C15.5 12.2285 15.3345 11.552 15.0028 10.9722C14.8462 10.6985 14.6602 10.4595 14.4539 10.25H18V9H12.2582C11.6828 8.80946 11.0947 8.67127 10.5635 8.54645L10.5635 8.54645L10.479 8.52658C9.36982 8.26559 8.48741 8.04685 7.85962 7.65294C7.56905 7.47062 7.36738 7.26916 7.23322 7.03466C7.1001 6.80198 7 6.47851 7 6C7 5.38791 7.28518 4.9284 7.8047 4.58205C8.35386 4.21594 9.14834 4 10 4C10.8517 4 11.6461 4.21594 12.1953 4.58205C12.7148 4.9284 13 5.38791 13 6H15C15 4.61209 14.2852 3.5716 13.3047 2.91795C12.3539 2.28406 11.1483 2 10 2Z" fill="currentColor"/>
</svg>
