<svg width="20" height="20" viewBox="0 0 20 20" fill="none" xmlns="http://www.w3.org/2000/svg">
<path fill-rule="evenodd" clip-rule="evenodd" d="M6.809 9.5L1.95605 2H4.33823L8.00008 7.65923L11.6619 2H14.0441L9.19117 9.5L14.0441 17H11.6619L8.00008 11.3408L4.33823 17H1.95605L6.809 9.5ZM17.4697 15.2197L15 17.6893V19H15.5H20V17.5H17.3107L18.5303 16.2803C19.3008 15.5099 20 14.5711 20 13.5C20 12.9749 19.8289 12.3634 19.4242 11.8688C19.0004 11.3508 18.3498 11 17.5 11C16.6502 11 15.9996 11.3508 15.5758 11.8688C15.1711 12.3634 15 12.9749 15 13.5H16.5C16.5 13.2751 16.5789 13.0116 16.7367 12.8187C16.8754 12.6492 17.0998 12.5 17.5 12.5C17.9002 12.5 18.1246 12.6492 18.2633 12.8187C18.4211 13.0116 18.5 13.2751 18.5 13.5C18.5 13.9289 18.1992 14.4901 17.4697 15.2197Z" fill="currentColor"/>
</svg>
