<svg width="20" height="20" viewBox="0 0 20 20" fill="none" xmlns="http://www.w3.org/2000/svg">
<path fill-rule="evenodd" clip-rule="evenodd" d="M17.4697 4.21967L15 6.68934V8H15.5H20V6.5H17.3107L18.5303 5.28033C19.3008 4.50988 20 3.57109 20 2.5C20 1.97495 19.8289 1.36341 19.4242 0.868822C19.0004 0.350834 18.3498 0 17.5 0C16.6502 0 15.9996 0.350834 15.5758 0.868822C15.1711 1.36341 15 1.97495 15 2.5H16.5C16.5 2.27505 16.5789 2.01159 16.7367 1.81868C16.8754 1.64917 17.0998 1.5 17.5 1.5C17.9002 1.5 18.1246 1.64917 18.2633 1.81868C18.4211 2.01159 18.5 2.27505 18.5 2.5C18.5 2.92891 18.1992 3.49012 17.4697 4.21967ZM6.809 9.5L1.95605 2H4.33823L8.00008 7.65923L11.6619 2H14.0441L9.19117 9.5L14.0441 17H11.6619L8.00008 11.3408L4.33823 17H1.95605L6.809 9.5Z" fill="currentColor"/>
</svg>
