<?xml version="1.0" encoding="UTF-8"?>
<svg viewBox="0 0 20 20" version="1.1" xmlns="http://www.w3.org/2000/svg" p-id="4670" width="20" height="20">
    <path
        d="m5.27,3.31c0,.65-.54,1.17-1.19,1.17-.65,0-1.18-.53-1.18-1.18s.53-1.18,1.18-1.18c.65,0,1.18.52,1.19,1.17v.02h0Zm5.15-.14c1.43.63,2.74,1.62,3.33,3.01,1.6-.41,3.28.22,4.22,1.57.94,1.35.94,3.15,0,4.5-.94,1.35-2.62,1.98-4.22,1.57-.6,1.4-1.9,2.38-3.33,3.01-1.18.52-2.51.85-3.81.98-.55,1.25-1.93,1.91-3.25,1.55-1.32-.36-2.18-1.63-2.02-2.98.16-1.36,1.29-2.39,2.65-2.44,1.37-.04,2.56.92,2.8,2.26,1.03-.14,2.07-.41,2.98-.81,1.29-.57,2.19-1.35,2.55-2.26-.75-.58-1.27-1.41-1.46-2.34h-4.14c-.39,1.31-1.69,2.14-3.04,1.94-1.36-.2-2.36-1.36-2.36-2.73,0-1.37,1.01-2.53,2.36-2.72,1.35-.2,2.65.63,3.04,1.94h4.14c.19-.93.71-1.76,1.46-2.34-.36-.91-1.26-1.69-2.55-2.26-.91-.4-1.95-.68-2.98-.81-.25,1.34-1.44,2.31-2.8,2.26-1.37-.04-2.49-1.08-2.65-2.44-.16-1.36.7-2.63,2.02-2.98,1.32-.36,2.7.3,3.25,1.55,1.29.13,2.63.46,3.81.98h0Zm-5.15,13.52c0-.65-.54-1.17-1.19-1.17-.65,0-1.18.53-1.18,1.18s.53,1.18,1.18,1.18c.65,0,1.18-.52,1.19-1.17v-.02Zm11.83-6.69c0-1.31-1.06-2.37-2.37-2.37s-2.37,1.06-2.37,2.37c0,1.31,1.06,2.37,2.37,2.37s2.37-1.06,2.37-2.37h0Zm-11.83,0c0-.65-.53-1.18-1.18-1.18s-1.18.53-1.18,1.18.53,1.18,1.18,1.18,1.18-.53,1.18-1.18h0Zm0,0"
        fill="#e8af59" />
</svg>