<?xml version="1.0" encoding="UTF-8"?>
<svg viewBox="0 0 16 16" version="1.1" xmlns="http://www.w3.org/2000/svg" p-id="4670" width="16" height="16">
    <path
        d="m4.23,2.66c0,.52-.43.94-.95.93-.52,0-.94-.42-.94-.94s.42-.94.94-.94c.52,0,.94.42.95.93v.02h0Zm4.11-.11c1.14.51,2.18,1.29,2.66,2.4,1.27-.33,2.61.17,3.36,1.25.75,1.08.75,2.51,0,3.59-.75,1.08-2.09,1.58-3.36,1.25-.47,1.11-1.52,1.9-2.66,2.4-.94.42-2,.68-3.04.78-.44,1-1.54,1.52-2.59,1.24-1.05-.29-1.74-1.3-1.61-2.38.13-1.08,1.03-1.91,2.11-1.94,1.09-.04,2.04.73,2.24,1.8.82-.11,1.65-.33,2.37-.65,1.03-.46,1.75-1.08,2.03-1.81-.6-.46-1.01-1.12-1.17-1.87h-3.3c-.31,1.05-1.35,1.71-2.43,1.55-1.08-.16-1.88-1.09-1.88-2.18,0-1.09.8-2.02,1.88-2.17,1.08-.16,2.11.5,2.43,1.54h3.3c.15-.74.57-1.4,1.17-1.87-.29-.73-1-1.35-2.03-1.81-.72-.32-1.55-.54-2.37-.65-.2,1.07-1.15,1.84-2.24,1.8-1.09-.03-1.99-.86-2.12-1.94-.13-1.08.56-2.09,1.61-2.38,1.05-.29,2.15.24,2.59,1.24,1.03.11,2.1.37,3.04.78h0Zm-4.11,10.79c0-.52-.43-.94-.95-.93-.52,0-.94.42-.94.94,0,.52.42.94.94.94.52,0,.94-.42.95-.93v-.02Zm9.43-5.34c0-1.04-.84-1.89-1.89-1.89s-1.89.84-1.89,1.89.84,1.89,1.89,1.89,1.89-.84,1.89-1.89h0Zm-9.43,0c0-.52-.42-.94-.94-.94s-.94.42-.94.94.42.94.94.94.94-.42.94-.94h0Zm0,0"
        fill="#e8af59" />
</svg>