<svg t="1739116226728" class="icon" viewBox="0 0 1024 1024" version="1.1" xmlns="http://www.w3.org/2000/svg" p-id="1512"
    width="16" height="16">
    <path
        d="M91.989333 192C42.24 192 0 232.106667 0 282.026667v459.946666c0 49.92 42.24 90.026667 91.989333 90.026667h840.021334c49.749333 0 91.989333-40.106667 91.989333-90.026667V282.026667c0-49.92-42.24-90.026667-91.989333-90.026667H91.989333z m0 64h840.021334c16.469333 0 27.989333 12.245333 27.989333 26.026667v459.946666c0 13.781333-11.52 26.026667-27.989333 26.026667H91.989333c-16.469333 0-27.989333-12.245333-27.989333-26.026667V282.026667c0-13.781333 11.52-26.026667 27.989333-26.026667zM160 352v320H256v-212.992l96 126.976 96-126.976v212.992h96v-320H448l-96 128-96-128H160z m544 0V512h-96l144 160L896 512h-96V352H704z"
        fill="currentColor" p-id="1513"></path>
</svg>