<svg t="1710401595942" class="icon" viewBox="0 0 1024 1024" version="1.1" xmlns="http://www.w3.org/2000/svg" p-id="4073"
    width="20" height="20">
    <path
        d="M512 521.216c-24.064 0-45.568-4.608-65.024-9.216l-2.048-0.512-296.96-124.928c-31.232-13.824-50.176-39.424-50.176-66.56s19.456-52.736 50.176-66.56l1.024-0.512L445.44 131.072c39.424-15.872 96.768-15.872 136.192 0L877.056 250.88c31.232 13.824 50.176 39.424 50.176 66.56 0 28.672-19.456 54.272-51.2 66.56l-295.424 123.904c-21.504 8.704-46.592 13.312-68.608 13.312z m-48.128-68.096c14.336 3.584 30.72 7.168 48.128 7.168 14.336 0 31.744-3.072 46.08-8.704L852.48 327.68c8.704-3.584 12.288-7.68 12.8-9.728-1.024-2.048-5.12-6.656-13.312-10.752L558.08 188.416c-24.576-9.728-65.024-9.728-90.112 0L172.032 309.76c-7.68 3.584-11.776 8.192-13.312 10.24 1.024 2.048 5.632 6.656 13.312 10.24l291.84 122.88z"
        p-id="4074" fill="context-fill"></path>
    <path
        d="M512 712.192c-26.624 0-50.176-4.608-69.632-9.216l-2.048-0.512-2.048-1.024-321.024-123.904c-15.872-6.144-23.552-24.064-17.408-39.936 6.144-15.872 24.064-23.552 39.936-17.408l318.976 122.88c15.872 3.584 34.304 7.168 53.76 7.168 16.384 0 35.84-3.072 52.224-8.704l320.512-123.392c15.872-6.144 33.792 1.536 39.936 17.408s-1.536 33.792-17.408 39.936l-322.048 123.904c-23.552 8.192-50.176 12.8-73.728 12.8z"
        p-id="4075" fill="context-fill"></path>
    <path
        d="M512 889.856c-26.624 0-50.176-4.608-69.632-9.216l-2.048-0.512-2.048-1.024-321.024-123.904c-15.872-6.144-23.552-24.064-17.408-39.936 6.144-15.872 24.064-23.552 39.936-17.408l318.976 122.88c15.872 3.584 34.304 7.168 53.76 7.168 16.384 0 35.84-3.072 52.224-8.704l320.512-123.392c15.872-6.144 33.792 1.536 39.936 17.408s-1.536 33.792-17.408 39.936l-322.048 123.904c-23.552 8.704-50.176 12.8-73.728 12.8z"
        p-id="4076" fill="context-fill"></path>
</svg>