<svg t="1712475235724" class="icon" viewBox="0 0 1025 1024" version="1.1" xmlns="http://www.w3.org/2000/svg" p-id="6084"
    width="16" height="16">
    <path
        d="M896.244622 765.400781c-32.538127 0-62.261685 12.153822-84.820885 32.154322l-212.542629-190.40988a222.180398 222.180398 0 0 0 39.74513-127.33794c0-35.267407-8.145193-69.340754-23.497389-100.045146l139.363827-114.416508a156.507113 156.507113 0 1 0-23.75326-32.154322l-136.890417 112.369548a226.658122 226.658122 0 0 0-20.725465-23.881194 222.308333 222.308333 0 0 0-158.212913-65.54535 222.095108 222.095108 0 0 0-133.819978 44.43608L218.658377 219.71549a127.807035 127.807035 0 1 0-32.580772 23.113584l65.246835 84.43708a222.180398 222.180398 0 0 0-60.044146 152.498484c0 58.850086 22.601845 114.331218 63.75426 156.379179L200.278387 710.729904a127.807035 127.807035 0 1 0 29.510333 27.292794l55.609067-75.780148a222.137753 222.137753 0 0 0 129.512834 41.237706c59.702986 0 115.909083-23.284165 158.170268-65.502705l0.127935-0.17058 212.798499 190.623105a127.807035 127.807035 0 1 0 110.194654-63.029295z m-28.742723-701.595374c51.429858 0 93.264593 41.79209 93.264593 93.221948s-41.79209 93.264593-93.264593 93.264593A93.307238 93.307238 0 0 1 774.279951 157.027355c0-51.429858 41.79209-93.221948 93.221948-93.221948zM65.520218 128.327276A63.967485 63.967485 0 0 1 129.359768 64.487726a63.967485 63.967485 0 0 1 63.92484 63.882195 63.967485 63.967485 0 0 1-63.92484 63.92484 63.967485 63.967485 0 0 1-63.83955-63.967485z m63.882195 752.641428A63.967485 63.967485 0 0 1 65.520218 817.043864a63.967485 63.967485 0 0 1 63.882195-63.882195 63.967485 63.967485 0 0 1 63.92484 63.882195 63.967485 63.967485 0 0 1-63.92484 63.92484z m285.593498-241.370643a159.961357 159.961357 0 0 1-159.790777-159.790778 159.961357 159.961357 0 0 1 159.790777-159.748132 159.961357 159.961357 0 0 1 159.748132 159.748132 159.961357 159.961357 0 0 1-159.748132 159.748133zM896.244622 957.047366a63.967485 63.967485 0 0 1-63.92484-63.882195 63.967485 63.967485 0 0 1 63.92484-63.92484 63.967485 63.967485 0 0 1 63.882195 63.92484 63.967485 63.967485 0 0 1-63.882195 63.882195z"
        fill="#e8af59" p-id="6085"></path>
</svg>