<svg t="1710402054079" class="icon" viewBox="0 0 1024 1024" version="1.1" xmlns="http://www.w3.org/2000/svg"
    p-id="16029" width="20" height="20">
    <path
        d="M246.153846 194.166154h59.076923v111.064615a118.153846 118.153846 0 0 0 118.153846 118.153846h177.23077a118.153846 118.153846 0 0 0 118.153846-118.153846v-111.064615h59.076923a51.987692 51.987692 0 0 1 51.987692 51.987692v262.301539a33.083077 33.083077 0 1 0 66.166154 0v-262.301539a118.153846 118.153846 0 0 0-118.153846-118.153846h-531.692308a118.153846 118.153846 0 0 0-118.153846 118.153846v531.692308a118.153846 118.153846 0 0 0 118.153846 118.153846h203.224616a33.083077 33.083077 0 1 0 0-66.166154h-203.224616a51.987692 51.987692 0 0 1-51.987692-51.987692v-531.692308a51.987692 51.987692 0 0 1 51.987692-51.987692z m125.243077 111.064615v-111.064615h281.206154v111.064615a51.987692 51.987692 0 0 1-51.987692 51.987693h-177.23077a51.987692 51.987692 0 0 1-51.987692-51.987693z"
        p-id="16030" fill="context-fill"></path>
    <path
        d="M478.916923 692.460308h290.500923l-45.449846-45.449846a33.083077 33.083077 0 1 1 46.788923-46.710154l97.437539 97.437538a39.384615 39.384615 0 0 1 0 55.689846l-97.437539 97.516308a33.083077 33.083077 0 0 1-46.788923-46.788923l45.449846-45.528615H478.916923a33.083077 33.083077 0 1 1 0-66.166154z"
        p-id="16031" fill="context-fill"></path>
</svg>